PathFileType	4	(X/Y/Z)	C:\Users\Vitor Bertoli\OneDrive\Documents\Yolotestes\IMG_0212_Sports2D\IMG_0212_Sports2D_m_person00.trc
DataRate	CameraRate	NumFrames	NumMarkers	Units	OrigDataRate	OrigDataStartFrame	OrigNumFrames
112	112	11	22	m	112	150	401
Frame#	Time	Hip			RHip			RKnee			RAnkle			RBigToe			RSmallToe			RHeel			LHip			LKnee			LAnkle			LBigToe			LSmallToe			LHeel			Neck			Head			Nose			RShoulder			RElbow			RWrist			LShoulder			LElbow			LWrist		
		X1	Y1	Z1	X2	Y2	Z2	X3	Y3	Z3	X4	Y4	Z4	X5	Y5	Z5	X6	Y6	Z6	X7	Y7	Z7	X8	Y8	Z8	X9	Y9	Z9	X10	Y10	Z10	X11	Y11	Z11	X12	Y12	Z12	X13	Y13	Z13	X14	Y14	Z14	X15	Y15	Z15	X16	Y16	Z16	X17	Y17	Z17	X18	Y18	Z18	X19	Y19	Z19	X20	Y20	Z20	X21	Y21	Z21	X22	Y22	Z22
150	1.3392857142857142	3.9152864196864123	0.8951427397939108	0.0	3.8671001676366377	0.9137119441976302	0.0	3.8863374987837043	0.47055416011036577	0.0	3.4284259739482956	0.4637294274407901	0.0	3.283726702527538	0.3123317301459295	0.0	3.2743070300158386	0.34149327484277725	0.0	3.3730192223708966	0.5128200244417797	0.0	3.97525364915025	0.9026173535748295	0.0	4.0891199470677675	0.5257011651374743	0.0	3.857636320250346	0.14860780999360104	0.0	4.012673725573454	0.029802062752867724	0.0	3.9909329139445187	0.05071537072099285	0.0	3.7946261284755995	0.11059337064147995	0.0	4.246762782815824	1.3819606038923695	0.0	4.448588953414561	1.5769819008647952	0.0	4.4259756763091005	1.4367936667937051	0.0	4.16824757288094	1.3596834293521733	0.0	3.961881394404552	1.1674882829868638	0.0	4.015026032385545	0.9107744930257998	0.0	4.19536536406898	1.3255787848555272	0.0	4.072544372456068	1.0727682641887744	0.0	4.242776461822497	0.9106425640166221	0.0
151	1.3482142857142856	3.947221649349679	0.8940187552681597	0.0	3.9037829011638814	0.9119266273713302	0.0	3.9553604757103886	0.47191572699651824	0.0	3.4955511676191686	0.46774166965641184	0.0	3.3547335538014194	0.31658527145243315	0.0	3.3462752439965535	0.34413315370063446	0.0	3.4374414404443376	0.5162789122476089	0.0	4.000662449481407	0.9019920710828732	0.0	4.093538368989237	0.5135026875935774	0.0	3.853745775371806	0.14065956934571588	0.0	4.01128624728108	0.023546780746058992	0.0	3.9890285158466465	0.045121780078376	0.0	3.7900547055314644	0.10471921627725903	0.0	4.279883333461082	1.378961434133408	0.0	4.47943148962788	1.5755095590513306	0.0	4.457643499269857	1.4345865602853243	0.0	4.200721673700681	1.3583823073844452	0.0	3.9808009631646417	1.1795973718538937	0.0	4.003720113925937	0.9160887724274924	0.0	4.231662666532964	1.3200997181147607	0.0	4.127346399630161	1.0544637475709462	0.0	4.312532758952974	0.9175297079198856	0.0
152	1.357142857142857	3.978874023540818	0.892585243592935	0.0	3.9405994373521467	0.9095713511163707	0.0	4.024988628989322	0.4752118035666439	0.0	3.5643024807784682	0.46849850614520033	0.0	3.430148464150788	0.3162218333722133	0.0	3.4223719529835646	0.3421465024687431	0.0	3.5031499618388784	0.5154581197407198	0.0	4.0248731650615435	0.9010885538287311	0.0	4.097089982214726	0.5023216077319003	0.0	3.8495136324560453	0.13350129406224454	0.0	4.009681943118865	0.01835468247711082	0.0	3.9872759068213317	0.04065142933270093	0.0	3.785108637985938	0.09936715965105247	0.0	4.312869393495973	1.3754826204636308	0.0	4.509923955125725	1.5739450034064226	0.0	4.488978929940181	1.4323056004780224	0.0	4.233296995179353	1.3568772871822041	0.0	4.000724280621471	1.192683982426346	0.0	3.9943612609208374	0.9257413918666202	0.0	4.26941488535589	1.3140511630398735	0.0	4.183723777046676	1.038294427495386	0.0	4.380845361168735	0.9293291436614033	0.0
153	1.3660714285714286	4.010314663090057	0.8909219455352793	0.0	3.9774016001375223	0.9067825139075988	0.0	4.094458755420935	0.4807108828097455	0.0	3.6343288118887918	0.46609294176751936	0.0	3.509773647428661	0.3114588107504808	0.0	3.502381851289645	0.3358219962903471	0.0	3.5701242256582186	0.5104648281678746	0.0	4.04811193383755	0.8999156259561158	0.0	4.1003958842477095	0.492486594047392	0.0	3.845431226350159	0.1273496585757489	0.0	4.008003188384703	0.01421311392804903	0.0	3.985817772066083	0.03730008247820441	0.0	3.7803046773306432	0.09475843045590013	0.0	4.3458438589776325	1.3716070992844092	0.0	4.540131898923964	1.5724098476887975	0.0	4.520158995822034	1.430129500195611	0.0	4.265893522109041	1.355357391231784	0.0	4.021809610032936	1.206733498710508	0.0	3.987782024187647	0.9394660563100327	0.0	4.308834049790456	1.3074383874059703	0.0	4.241426997260962	1.024686233740614	0.0	4.447002476503147	0.9456419178178321	0.0
154	1.375	4.041619940676006	0.889215706900031	0.0	4.0140262131058755	0.903804284377604	0.0	4.1630930445055805	0.48861735541244666	0.0	3.705355506021325	0.4606727725868596	0.0	3.5934262568177666	0.30269461888190413	0.0	3.5860825462170136	0.3256228799240397	0.0	3.638432433245677	0.5014835773662031	0.0	4.070659668429281	0.8985865205508746	0.0	4.104033507089946	0.48427229983276615	0.0	3.8418886201901223	0.12238062809163788	0.0	4.006301023486792	0.010991736612979475	0.0	3.9846702231654474	0.034921597189189614	0.0	3.7760588120529186	0.0911058478513155	0.0	4.37896335824829	1.3674881230408003	0.0	4.5701066421005905	1.5710502419453554	0.0	4.551366577625454	1.4282243037504754	0.0	4.298450275191231	1.354047268623275	0.0	4.044202523644462	1.221701446050616	0.0	3.984682833451219	0.9567655224860206	0.0	4.350072840190752	1.3003308819520523	0.0	4.30019975679812	1.013839274739298	0.0	4.510463874403956	0.9658049527193477	0.0
155	1.3839285714285714	4.0728739077015454	0.8877277107802437	0.0	4.050373242163314	0.9009507852815773	0.0	4.2303468627887915	0.4990258427702858	0.0	3.7772732623279475	0.4524474913643083	0.0	3.6810166676977376	0.2905209766967008	0.0	3.6732920211206275	0.31213850464363124	0.0	3.7081961463025865	0.48875079035165053	0.0	4.092833949787245	0.897315853016523	0.0	4.108413586136364	0.47789871599156764	0.0	3.8391962421716284	0.11874895455986259	0.0	4.004568252371292	0.008507072092137967	0.0	3.983766454921613	0.03331625736740879	0.0	3.7727078251172834	0.08860993562438889	0.0	4.412373182528361	1.3633498542896774	0.0	4.599911625032686	1.5700414446121163	0.0	4.582776744190461	1.4267416652986267	0.0	4.3309438548480514	1.3531713619632004	0.0	4.0680089147761676	1.2374756737101626	0.0	3.985595345305643	0.9769515766277712	0.0	4.393148583772565	1.2929560432522127	0.0	4.359648082548457	1.0058270380690575	0.0	4.570853150583433	0.988995451479329	0.0
156	1.3928571428571428	4.104220572275331	0.8867079193100955	0.0	4.0864771929355905	0.8985262782515302	0.0	4.295807087241448	0.5118488213425852	0.0	3.8501608060899297	0.44168045331801353	0.0	3.7725752512909825	0.27568040236501756	0.0	3.7638977574513315	0.29600859464291646	0.0	3.7795769348982566	0.47255490311421117	0.0	4.115022474579366	0.8963486041765216	0.0	4.113775836377299	0.4735347708103706	0.0	3.837608142123031	0.11660195214178252	0.0	4.002785574991921	0.006599147318603848	0.0	3.9830205611816436	0.0323235109010999	0.0	3.770538802370088	0.08745384099137031	0.0	4.446186179900729	1.3594653655636326	0.0	4.629647356993126	1.5695817417918256	0.0	4.614559245873579	1.4258247954464216	0.0	4.363395844739565	1.3529251481629552	0.0	4.093290748511268	1.2538510084798389	0.0	3.9908535981604256	0.9992080079516006	0.0	4.437886451843802	1.285738928429428	0.0	4.419224962342758	1.0006647116310765	0.0	4.627916348752482	1.014310417262628	0.0
157	1.4017857142857142	4.135906903024951	0.886337289001287	0.0	4.122507291194308	0.8967700881768224	0.0	4.359187559686481	0.5267602942539557	0.0	3.9241788807884497	0.42867458831287386	0.0	3.868095067241571	0.2590355815457074	0.0	3.8577762315509294	0.2779157974134815	0.0	3.852733791362166	0.4532656758039072	0.0	4.137748414123284	0.8958856486541414	0.0	4.120253955930683	0.47130857631771045	0.0	3.837338551523359	0.11608469320108337	0.0	4.000960697340617	0.005172048670954156	0.0	3.9823773678162366	0.031850423660354434	0.0	3.7698117161735123	0.08780305433213621	0.0	4.480483772679619	1.3561346440651165	0.0	4.659464508774502	1.5698504839917289	0.0	4.6468742621303525	1.425603757096121	0.0	4.395871525975849	1.3534652410249932	0.0	4.120078505250267	1.270531130418619	0.0	4.000582048377089	1.0226481895405513	0.0	4.483933274952607	1.279230488255424	0.0	4.47830613369069	0.9983019554452757	0.0	4.681502915249064	1.0408031392572938	0.0
158	1.4107142857142856	4.168259403852261	0.8867190689868018	0.0	4.158714132256875	0.895855095883136	0.0	4.420280825444548	0.5432027970320066	0.0	3.9994044875673636	0.4137672306489851	0.0	3.9672818441422066	0.24154942113090333	0.0	3.954647711917103	0.25862282031874445	0.0	3.9277237684838164	0.43137208287481643	0.0	4.16166156285477	0.8960690500694508	0.0	4.127919115628391	0.47130794464362763	0.0	3.83857255268597	0.11732522257077875	0.0	3.999116215363772	0.004209592166405047	0.0	3.9817954339874118	0.03185956408954514	0.0	3.77075196886223	0.08981448500999387	0.0	4.515318260392165	1.353650329645867	0.0	4.689556140378782	1.570969071241075	0.0	4.6798554431458	1.4261767939674996	0.0	4.428463632619299	1.3549041179716104	0.0	4.148362775203091	1.2871507712572265	0.0	4.0147117818800195	1.0463653389082943	0.0	4.530843862963984	1.2739542364217835	0.0	4.536266609435835	0.9985773779018489	0.0	4.731570631015257	1.0675012284180763	0.0
159	1.419642857142857	4.201606930530225	0.8878969700466502	0.0	4.195369475307884	0.8959129127293696	0.0	4.478904126686061	0.5604648912710445	0.0	4.075768585488555	0.39732131658081354	0.0	4.069416559957996	0.22420579814751038	0.0	4.0539812734588345	0.23897020497648508	0.0	4.004463852793085	0.40747787851044426	0.0	4.1874161756954	0.8970151810333424	0.0	4.13682799233989	0.473552643480299	0.0	3.841464896390453	0.12041641842756104	0.0	3.99721905022978	0.003767156948698639	0.0	3.9811698597225837	0.03235441391509586	0.0	3.7735014195385044	0.0936597267627143	0.0	4.550704119361722	1.352249238889252	0.0	4.720137088997045	1.572992869320485	0.0	4.71358335507407	1.427583002685545	0.0	4.461264152186802	1.3572944565916285	0.0	4.178062818243434	1.3033040753415448	0.0	4.033021447001801	1.0694619704555566	0.0	4.578143071505455	1.2702926732785789	0.0	4.592521187147621	1.0012105372600355	0.0	4.778174186211546	1.0934258092216471	0.0
160	1.4285714285714284	4.236193828471929	0.8898728280786397	0.0	4.232714409398228	0.8970438860383613	0.0	4.534892673069385	0.5777834944331884	0.0	4.15310143380892	0.3797130413681937	0.0	4.173394094421476	0.20789250395684006	0.0	4.154963866135864	0.21982756011056284	0.0	4.0827535600522475	0.382264475540275	0.0	4.2155208690905255	0.8988329857821091	0.0	4.1471088794242865	0.47796266063796444	0.0	3.8461295303930965	0.1254278003534594	0.0	3.9951202195747	0.003930109361795631	0.0	3.9802752669777925	0.033369428535030395	0.0	3.7780857964992434	0.09954704525353011	0.0	4.586605614586321	1.3520764617086796	0.0	4.751417815773674	1.5759169237320185	0.0	4.748068811059668	1.4297851450074335	0.0	4.494348864504395	1.3606114837107581	0.0	4.209014501961118	1.318575824241313	0.0	4.055191374899972	1.0910733715840522	0.0	4.625328256951938	1.2684733788188693	0.0	4.64653026383786	1.0058513474757564	0.0	4.821437536070666	1.1176163888580226	0.0
